Patient4_TMGait_0pt3_02_right_13_EMG.mot
version=1
nRows=13
nColumns=33
inDegrees=no
endheader
time	1LAddLong	2LGlutMax	3LGlutMed	4LIliopsoas	5LSemiMemb	6LBicFemLong	7LRecFem	8LVastMed	9LVastLat	10LGasMed	11LTibAnt	12lTibPost	13LPeroneusLong	14LSol	15LExtDigLong	16LFlexDigLong	17RAddLong	18RGlutMax	19RGlutMed	20RIliopsoas	21RSemiMemb	22RBicFemLong	23RRecFem	24RVastMed	25RVastLat	26RGasMed	27RTibAnt	28RTibPost	29RPeroneusLong	30RSol	31RExtDigLong	32RFlexDigLong
24.4	0.010834	0.034637	-0.095062	0.020142	0.061493	-0.067902	-0.028534	0.032806	-0.016632	0.29739	-0.076904	-0.074615	-0.16571	0.46524	-0.14313	-0.041351	-0.019073	-0.029449	0.74783	0.088043	-0.12116	-0.054626	0.13306	0.010223	0.036011	-0.005951	0.44128	-0.005646	-0.1001	-0.035858	0.003204	-0.014801
24.401	0.002899	0.087433	-0.080414	0.016327	0.02121	-0.16907	-0.084839	-0.010986	-0.11871	-0.23178	-0.21545	-0.49423	-0.19211	0.49881	-0.14008	0.043182	-0.02243	-0.030975	0.84656	0.098114	-0.11719	-0.023041	0.1442	-0.006866	0.049744	0.000305	0.80658	-0.00412	-0.16068	-0.099792	0.001678	-0.007019
24.402	-0.015564	0.15579	-0.088348	0.016937	0.098877	-0.043488	-0.072174	-0.041809	-0.22354	-0.053711	-0.18814	0.33417	-0.11002	0.37415	-0.10895	-0.10071	-0.023499	-0.057678	1.2743	-0.032501	-0.10483	-0.014648	0.12695	0.03952	0.058899	0.00885	0.61661	-0.000458	-0.15442	-0.10757	-0.002747	-0.00412
24.403	-0.016785	0.14816	0.015869	0.005493	0.030212	0.039673	-0.15427	-0.048065	-0.37445	0.30075	-0.14191	0.39581	-0.030518	0.06546	-0.16663	-0.62592	-0.030212	-0.091705	1.2527	-0.028534	-0.096588	-0.003204	0.15381	0.057831	0.04303	0.002747	0.13534	-0.005646	-0.19394	-0.097656	-0.000305	-0.007477
24.404	-0.022278	0.1796	-0.023651	-0.011749	-0.014343	0.07019	-0.16129	-0.052032	-0.23926	0.24139	-0.081329	0.10452	0.032043	-0.10803	-0.035095	0.1387	-0.041656	-0.16571	1.125	-0.030212	-0.081787	-0.003662	0.14481	0.0383	0.055084	-0.007629	-0.57007	-0.003357	-0.023651	-0.16968	0.00061	-0.010376
24.405	-0.009003	0.15106	0.052338	0.002899	0.048523	0.10849	-0.1001	-0.03952	-0.1207	-0.023193	0.00885	0.004883	0.09552	0.12711	-0.003357	0.20538	-0.053253	-0.1886	0.57037	0.045929	-0.086975	-0.017395	0.14969	0.063934	0.053253	-0.005646	-0.10025	-0.011749	0.032959	-0.16495	0.000763	-0.016785
24.406	-0.009308	0.19486	0.069275	0.016327	0.06897	0.17334	-0.005951	-0.012207	-0.084839	-0.27481	-0.018005	0.002747	0.1799	0.29984	-0.13123	-0.089264	-0.056458	-0.16693	0.83633	-0.027771	-0.0914	-0.019836	0.14648	0.098724	0.04837	0.004578	0.6543	-0.002289	0.056458	-0.1709	-0.000458	-0.007477
24.407	-0.020142	0.23117	0.091705	0.001221	0.034027	0.12299	0.021057	0.02594	-0.18356	0.041504	-0.04715	-0.025482	0.13351	0.47791	-0.2214	-0.057373	-0.046692	-0.14236	0.8728	-0.013885	-0.071259	-0.031738	0.16281	0.063782	0.043488	-0.009766	0.70038	-0.00412	-0.084076	-0.087128	0.001984	-0.02594
24.408	-0.023956	0.16083	0.013733	-0.00061	0.013123	0.19318	0.027924	0.030823	-0.061035	0.005798	-0.11368	-0.020142	0.067444	0.21332	-0.18829	0.060577	-0.018616	-0.13886	0.51498	0.048218	-0.050201	-0.039673	0.15091	0.065613	0.040283	-0.01709	0.61432	-0.006714	-0.17899	-0.02243	0.000305	-0.0177
24.409	-0.009155	0.09491	-0.046844	0.01709	0.00885	0.14496	0.047913	0.016479	0.095367	0.019989	-0.10376	-0.010986	0.049133	0.093536	-0.044861	0.028687	0.041046	-0.13534	0.25879	0.036316	-0.037842	-0.039673	0.1532	0.11841	0.049896	-0.000458	0.037537	-0.00351	0.072479	-0.10635	0.002594	-0.013275
24.41	-0.006866	0.030212	-0.015106	0.033875	0.004883	-0.041046	-0.061646	0.011902	0.25757	0.007782	-0.071716	-0.033875	0.084229	-0.17151	0.033112	0.007935	0.034943	-0.15488	0.030518	0.050354	-0.061188	-0.036926	0.18341	0.053558	0.06073	0.016174	-0.51453	-0.002136	0.36331	-0.080414	0.00061	-0.004272
24.411	0.013275	-0.021057	-0.030212	0.009613	-0.010223	-0.046539	-0.12985	-0.011902	0.37048	-0.025177	-0.004425	-0.010834	0.11765	-0.053253	0.11261	-0.059204	0.006866	-0.1712	0.31952	0.053253	-0.05188	-0.029144	0.16312	0.065308	0.051422	0.011597	-0.57587	-0.007019	0.27496	-0.027313	0.00473	-0.007477
24.412	-0.016937	-0.077362	-0.061188	0.011749	-0.027771	-0.058899	0.017548	-0.019989	0.289	-0.08255	0.056305	-0.023956	0.071564	-0.0177	0.093231	-0.055084	-0.013275	-0.13931	0.86273	0.015106	-0.039978	-0.031433	0.15289	0.051575	0.054779	0.005035	-0.54901	-0.003815	0.11993	-0.072479	0.000458	-0.001221
